<?xml version="1.0" standalone="no"?>
<!DOCTYPE svg PUBLIC "-//W3C//DTD SVG 20010904//EN"
 "http://www.w3.org/TR/2001/REC-SVG-20010904/DTD/svg10.dtd">
<svg version="1.0" xmlns="http://www.w3.org/2000/svg"
 width="1em" height="1em" viewBox="0 0 512.000000 512.000000"
 preserveAspectRatio="xMidYMid meet">

<g transform="translate(0.000000,512.000000) scale(0.100000,-0.100000)"
fill="#fff" stroke="none">
<path d="M2225 5105 c-448 -62 -872 -238 -1217 -505 -105 -81 -128 -110 -128
-160 0 -33 30 -65 488 -522 482 -483 488 -488 528 -488 27 0 55 9 88 30 109
70 221 117 344 145 77 18 107 37 121 77 7 21 11 244 11 685 0 716 1 707 -59
737 -34 18 -52 18 -176 1z m15 -758 l0 -544 -62 -17 c-35 -9 -109 -39 -164
-65 l-102 -49 -383 384 c-211 211 -381 385 -379 388 3 2 57 38 119 80 267 177
569 298 886 355 28 5 58 9 68 10 16 1 17 -31 17 -542z"/>
<path d="M2723 5100 c-21 -12 -36 -32 -43 -57 -8 -27 -10 -238 -8 -700 l3
-662 29 -30 c21 -21 45 -34 85 -42 301 -62 588 -284 728 -564 39 -76 77 -184
92 -256 8 -40 21 -64 42 -85 l30 -29 669 -3 c739 -3 723 -4 755 58 20 39 15
108 -21 305 -72 398 -245 782 -502 1115 -85 109 -323 347 -432 432 -370 285
-779 458 -1240 523 -136 19 -149 19 -187 -5z m262 -224 c531 -94 1031 -383
1377 -796 219 -261 394 -598 474 -915 22 -86 54 -244 54 -267 0 -5 -244 -8
-542 -8 l-543 0 -18 63 c-10 34 -38 103 -62 154 -149 316 -441 574 -762 675
l-73 23 0 542 c0 299 3 543 8 543 4 0 43 -6 87 -14z"/>
<path d="M629 4232 c-15 -9 -58 -57 -96 -107 -271 -352 -443 -766 -510 -1225
-22 -158 -22 -512 0 -670 67 -459 239 -873 510 -1225 79 -102 107 -125 157
-125 33 0 65 30 522 488 483 482 488 488 488 528 0 27 -9 55 -30 88 -115 180
-170 370 -170 581 0 211 50 383 166 576 23 38 34 69 34 95 0 38 -13 51 -488
526 -457 458 -489 488 -522 488 -19 0 -47 -8 -61 -18z m448 -634 l382 -381
-38 -76 c-95 -188 -134 -357 -134 -576 0 -219 41 -392 137 -582 l35 -70 -383
-382 -383 -383 -29 38 c-60 84 -73 102 -127 196 -210 358 -318 757 -319 1179
0 490 133 918 415 1341 29 43 54 77 57 78 3 0 177 -172 387 -382z"/>
<path d="M3682 2449 c-37 -14 -60 -49 -72 -107 -33 -155 -119 -330 -221 -454
-348 -419 -942 -512 -1405 -218 -33 21 -61 30 -88 30 -40 0 -46 -5 -528 -488
-458 -457 -488 -489 -488 -522 0 -50 23 -79 125 -157 696 -530 1610 -675 2418
-382 631 229 1162 709 1453 1314 129 268 211 557 239 836 6 52 3 73 -10 98
-32 62 -18 61 -742 60 -385 0 -668 -4 -681 -10z m1208 -225 c0 -31 -40 -210
-69 -309 -156 -537 -509 -1009 -991 -1324 -120 -79 -364 -199 -500 -246 -199
-69 -403 -110 -616 -124 -325 -22 -684 32 -984 148 -164 64 -374 173 -480 250
-19 13 -50 36 -69 49 l-33 25 383 383 382 383 76 -38 c105 -53 203 -87 324
-112 142 -30 360 -30 504 0 256 53 470 168 653 351 144 145 255 325 311 505
l24 75 542 0 c490 0 543 -2 543 -16z"/>
</g>
</svg>
